Coordinates
version=1
nRows=35
nColumns=34
inDegrees=no

Units are S.I. units (second, meters, Newtons, ...)
If the header above contains a line with 'inDegrees', this indicates whether rotational values are in degrees (yes) or radians (no).

endheader
time	pelvis_tilt	pelvis_list	pelvis_rotation	pelvis_tx	pelvis_ty	pelvis_tz	hip_flexion_r	hip_adduction_r	hip_rotation_r	knee_angle_r	ankle_angle_r	subtalar_angle_r	mtp_angle_r	hip_flexion_l	hip_adduction_l	hip_rotation_l	knee_angle_l	ankle_angle_l	subtalar_angle_l	mtp_angle_l	lumbar_extension	lumbar_bending	lumbar_rotation	arm_flex_r	arm_add_r	arm_rot_r	elbow_flex_r	pro_sup_r	arm_flex_l	arm_add_l	arm_rot_l	elbow_flex_l	pro_sup_l
1.96	-0.464046	-0.0744387	0.011818	-0.373192	0.796786	-0.561486	1.41129	2.70113e-06	-0.0234742	1.3888	0.427817	-0.295538	-0.115704	1.44185	-0.147736	0.0668559	1.41871	0.46378	-0.144255	-0.115704	-0.302129	0.0426401	0.0293852	0.696687	-0.366665	-0.066106	2.16796	1.80967	0.482981	-0.477765	-0.0308851	2.00285	1.70615
1.97	-0.452768	-0.074871	0.0133663	-0.370223	0.793776	-0.561702	1.40454	0.00143222	-0.0215496	1.40495	0.439468	-0.297408	-0.115704	1.43517	-0.146484	0.0699567	1.43437	0.475327	-0.144198	-0.115704	-0.312487	0.0438863	0.0335543	0.667856	-0.355486	-0.0690563	2.13194	1.82692	0.458085	-0.459559	-0.016001	1.94164	1.70311
1.98	-0.440502	-0.0751694	0.0154355	-0.366752	0.791166	-0.561933	1.39563	0.00304552	-0.0191203	1.42048	0.450893	-0.300387	-0.115704	1.42629	-0.144808	0.0730689	1.44924	0.486778	-0.144184	-0.115704	-0.321044	0.0449698	0.0364643	0.641736	-0.346497	-0.0667033	2.09297	1.84554	0.437124	-0.442955	0.00223777	1.87667	1.69983
1.99	-0.42781	-0.0751872	0.0179757	-0.362823	0.789043	-0.562175	1.38489	0.00476634	-0.0161146	1.4349	0.461835	-0.304362	-0.115704	1.41549	-0.142629	0.0760338	1.46279	0.497804	-0.144313	-0.115704	-0.327341	0.0456193	0.0377131	0.619511	-0.340803	-0.0592373	2.05455	1.86402	0.419841	-0.429599	0.0223422	1.81333	1.69678
2	-0.415226	-0.0748241	0.0209228	-0.358501	0.78749	-0.562427	1.37268	0.00648545	-0.0125539	1.44771	0.472045	-0.309098	-0.115704	1.4031	-0.139897	0.0787101	1.47453	0.508098	-0.144658	-0.115704	-0.33102	0.0456169	0.0369495	0.602398	-0.339468	-0.04711	2.0204	1.88104	0.405781	-0.421029	0.0425618	1.75744	1.69459
2.01	-0.403233	-0.0740519	0.0241867	-0.353862	0.786586	-0.56269	1.35934	0.00810724	-0.00855201	1.4584	0.481285	-0.314305	-0.115704	1.38943	-0.136628	0.0809914	1.48397	0.517395	-0.145249	-0.115704	-0.331792	0.0448566	0.0339416	0.591633	-0.343403	-0.0309835	1.99389	1.89568	0.39448	-0.418517	0.0610537	1.71449	1.69393
2.02	-0.392243	-0.0729245	0.0276433	-0.348983	0.786408	-0.562959	1.34513	0.00958604	-0.00430267	1.46651	0.489328	-0.319689	-0.115704	1.37478	-0.132932	0.0828134	1.49071	0.52549	-0.146068	-0.115704	-0.329402	0.0433793	0.0286451	0.588468	-0.353275	-0.0116313	1.97749	1.90745	0.385709	-0.422938	0.0760999	1.68882	1.6952
2.03	-0.38258	-0.0715686	0.0311379	-0.343935	0.787031	-0.563229	1.33027	0.0109354	-5.54116e-05	1.47157	0.495978	-0.324989	-0.115704	1.35939	-0.12901	0.0841498	1.49439	0.532247	-0.147044	-0.115704	-0.323628	0.0413644	0.0212645	0.594156	-0.369463	0.0101663	1.97232	1.91599	0.379723	-0.434679	0.0863738	1.68292	1.69824
2.04	-0.374456	-0.0701572	0.0345041	-0.338773	0.788527	-0.563486	1.31484	0.0122124	0.00392287	1.47321	0.50108	-0.329996	-0.115704	1.34343	-0.125134	0.085	1.49474	0.5376	-0.148077	-0.115704	-0.314308	0.03908	0.0122868	0.6099	-0.392067	0.0337189	1.97803	1.92093	0.377446	-0.453619	0.0911976	1.69702	1.70209
2.05	-0.36796	-0.0688732	0.0375886	-0.333531	0.790966	-0.56372	1.29888	0.0134917	0.0073961	1.47115	0.504545	-0.33459	-0.115704	1.32697	-0.121596	0.0853747	1.49155	0.541545	-0.149061	-0.115704	-0.301381	0.0368139	0.00244286	0.636802	-0.420911	0.058554	1.99291	1.92172	0.380458	-0.479181	0.0906681	1.72916	1.70509
2.06	-0.363058	-0.0678687	0.0402763	-0.328224	0.794411	-0.563916	1.28229	0.0148385	0.0102088	1.46517	0.506344	-0.338764	-0.115704	1.30996	-0.118664	0.0852814	1.4847	0.544123	-0.149924	-0.115704	-0.284923	0.0348154	-0.00742291	0.675838	-0.455518	0.0845812	2.01423	1.9177	0.390751	-0.510458	0.0855738	1.77563	1.70523
2.07	-0.359607	-0.0672327	0.042509	-0.322846	0.798927	-0.564069	1.26488	0.0162807	0.0123205	1.4552	0.506502	-0.342647	-0.115704	1.29225	-0.116528	0.0847176	1.47411	0.545393	-0.150658	-0.115704	-0.265168	0.0332579	-0.0165164	0.727839	-0.495083	0.112223	2.03868	1.90835	0.410341	-0.546371	0.0771598	1.83169	1.70065
2.08	-0.357369	-0.066976	0.0442984	-0.317372	0.80458	-0.564176	1.24637	0.0177813	0.0138107	1.44117	0.505085	-0.346485	-0.115704	1.27357	-0.115275	0.0836785	1.45973	0.545399	-0.151342	-0.115704	-0.242513	0.0322231	-0.0242139	0.793417	-0.538501	0.142421	2.06291	1.89356	0.440859	-0.585801	0.0668743	1.89235	1.6902
2.09	-0.35603	-0.0670392	0.0457272	-0.311765	0.811441	-0.564249	1.22637	0.019225	0.0148499	1.42301	0.502155	-0.3506	-0.115704	1.25351	-0.11487	0.0821774	1.44145	0.544119	-0.152149	-0.115704	-0.217508	0.0317087	-0.0301118	0.872855	-0.584441	0.176499	2.08391	1.87388	0.483251	-0.627683	0.0561685	1.95299	1.67382
2.1	-0.355206	-0.067318	0.0469398	-0.30598	0.81959	-0.564307	1.20435	0.0204319	0.0156491	1.40052	0.497709	-0.355343	-0.115704	1.23156	-0.11518	0.0802675	1.41907	0.541418	-0.153321	-0.115704	-0.190837	0.0316536	-0.0340238	0.965974	-0.631451	0.215934	2.09942	1.8506	0.537601	-0.67107	0.0463745	2.00973	1.65274
2.11	-0.354441	-0.0676924	0.0481248	-0.299964	0.829118	-0.564375	1.1796	0.0211967	0.0163993	1.37335	0.491578	-0.361031	-0.115704	1.20701	-0.116002	0.0780438	1.39222	0.536981	-0.155121	-0.115704	-0.163278	0.0319686	-0.0359577	1.072	-0.678046	0.262075	2.10803	1.82558	0.603097	-0.715181	0.038672	2.05966	1.62915
2.12	-0.353223	-0.0680527	0.0494916	-0.293665	0.840122	-0.564483	1.15124	0.0213355	0.0172012	1.34084	0.483324	-0.367873	-0.115704	1.17904	-0.117116	0.075612	1.36031	0.530248	-0.157756	-0.115704	-0.135643	0.0325636	-0.0360946	1.18945	-0.722764	0.315868	2.10917	1.80078	0.678138	-0.759451	0.0341471	2.1009	1.6054
2.13	-0.351011	-0.068316	0.0512443	-0.287022	0.852705	-0.564655	1.11823	0.0207258	0.0179834	1.30204	0.472135	-0.375829	-0.115704	1.14666	-0.118328	0.0730221	1.32244	0.520349	-0.161268	-0.115704	-0.1087	0.0333659	-0.0347827	1.31603	-0.764182	0.377594	2.10293	1.77794	0.760571	-0.80358	0.0339223	2.13256	1.58348
2.14	-0.347286	-0.0684385	0.0535585	-0.279974	0.866964	-0.56491	1.07944	0.0193318	0.0184094	1.2557	0.456762	-0.384461	-0.115704	1.10881	-0.119508	0.0701782	1.27748	0.506056	-0.165406	-0.115704	-0.0830693	0.034333	-0.0325355	1.44861	-0.800943	0.446695	2.08988	1.75829	0.848085	-0.84756	0.0393858	2.15457	1.56457
2.15	-0.341616	-0.0684214	0.0565622	-0.272454	0.882979	-0.565261	1.0338	0.0172215	0.0177969	1.20033	0.435514	-0.392797	-0.115704	1.06447	-0.12061	0.0667437	1.22405	0.485776	-0.169496	-0.115704	-0.0591367	0.0354583	-0.0300197	1.58326	-0.831847	0.52171	2.07087	1.74243	0.938781	-0.891651	0.0525386	2.1676	1.54894
2.16	-0.333727	-0.0683098	0.0603232	-0.264396	0.900805	-0.565712	0.980416	0.0145729	0.0150821	1.13437	0.406346	-0.399258	-0.115704	1.01281	-0.121664	0.0620634	1.16067	0.457616	-0.17236	-0.115704	-0.0369903	0.0367685	-0.0280271	1.71537	-0.855985	0.600369	2.04693	1.73023	1.03189	-0.936291	0.0764418	2.1729	1.53597
2.17	-0.323568	-0.06818	0.0648389	-0.255739	0.920447	-0.566267	0.918803	0.0116652	0.00885554	1.05645	0.367071	-0.401692	-0.115704	0.953352	-0.122749	0.0551268	1.08607	0.419544	-0.172308	-0.115704	-0.0164042	0.0383119	-0.027434	1.84009	-0.87289	0.679838	2.01924	1.72092	1.12852	-0.981929	0.115669	2.17222	1.52432
2.18	-0.311367	-0.0681174	0.0700281	-0.24645	0.941851	-0.566932	0.849099	0.00884551	-0.00251839	0.965771	0.315711	-0.397496	-0.115704	0.886215	-0.123943	0.0446009	0.999436	0.369657	-0.167251	-0.115704	0.00312955	0.0401432	-0.0291704	1.95276	-0.882576	0.757058	1.98911	1.71331	1.23231	-1.02884	0.176592	2.16766	1.51232
2.19	-0.297672	-0.0681927	0.0757229	-0.23654	0.964879	-0.567715	0.772294	0.00647253	-0.0206897	0.862463	0.250965	-0.383892	-0.115704	0.812314	-0.125276	0.0289568	0.900855	0.306574	-0.154958	-0.115704	0.0223439	0.0423112	-0.0342043	2.04949	-0.885437	0.829112	1.95796	1.70621	1.3496	-1.0769	0.267304	2.16166	1.49835
2.2	-0.283381	-0.0684397	0.0816667	-0.226086	0.989307	-0.568629	0.690399	0.00484556	-0.0470119	0.748009	0.172715	-0.358348	-0.115704	0.733526	-0.126677	0.00671153	0.791636	0.229889	-0.13344	-0.115704	0.0421321	0.0448501	-0.0435187	2.12751	-0.882073	0.893514	1.92722	1.69879	1.48907	-1.12538	0.396999	2.1568	1.48119
2.21	-0.269728	-0.0688407	0.0875224	-0.215243	1.01482	-0.569691	0.606496	0.00413667	-0.0821412	0.625477	0.0824689	-0.319157	-0.115704	0.652743	-0.127949	-0.0232165	0.67457	0.140615	-0.101444	-0.115704	0.063474	0.0477693	-0.0580367	2.18542	-0.87315	0.948411	1.89837	1.69099	1.66051	-1.17275	0.574743	2.15571	1.46017
2.22	-0.258196	-0.0693208	0.0928912	-0.204254	1.04104	-0.570918	0.524602	0.00434521	-0.125599	0.499569	-0.0164166	-0.266086	-0.115704	0.573742	-0.12876	-0.0610756	0.553981	0.0414989	-0.0589668	-0.115704	0.0873262	0.0510378	-0.0784645	2.22315	-0.859405	0.992684	1.87285	1.68363	1.87292	-1.2165	0.807675	2.16081	1.43513
2.23	-0.250325	-0.0697569	0.0973388	-0.193437	1.06753	-0.572321	0.449273	0.00528879	-0.175423	0.376358	-0.118856	-0.200919	-0.115704	0.500819	-0.128688	-0.105868	0.435516	-0.0629541	-0.00763697	-0.115704	0.114444	0.054564	-0.105062	2.24178	-0.841802	1.02594	1.8521	1.67819	2.13199	-1.25323	1.0988	2.17408	1.40652
2.24	-0.247399	-0.0700032	0.10043	-0.183159	1.09387	-0.573891	0.384957	0.00663907	-0.228073	0.262688	-0.218597	-0.127702	-0.115704	0.438181	-0.127335	-0.155096	0.325625	-0.166853	0.0491917	-0.115704	0.145119	0.0581877	-0.137397	2.24314	-0.821752	1.04833	1.8376	1.67626	2.43747	-1.27895	1.44476	2.19676	1.37547
2.25	-0.25006	-0.0699287	0.101773	-0.173805	1.11968	-0.575584	0.335159	0.00800825	-0.278751	0.165247	-0.309229	-0.0524922	-0.115704	0.389161	-0.124463	-0.204834	0.230745	-0.263766	0.106747	-0.115704	0.178861	0.0616895	-0.174165	2.22938	-0.801297	1.06032	1.83077	1.67876	2.78109	-1.28979	1.83416	2.2291	1.34367
2.26	-0.257947	-0.06945	0.101075	-0.165719	1.14469	-0.577305	0.301627	0.00907055	-0.322176	0.0894788	-0.385458	0.0174727	-0.115704	0.355444	-0.120129	-0.250263	0.156279	-0.347932	0.159587	-0.115704	0.214138	0.0648106	-0.213131	2.20243	-0.783173	1.06227	1.83298	1.68541	3.146	-1.28292	2.24752	2.27026	1.31336
2.27	-0.269506	-0.0685733	0.0981999	-0.15916	1.16878	-0.578909	0.283794	0.00971399	-0.353742	0.038548	-0.444242	0.075128	-0.115704	0.336522	-0.114755	-0.286639	0.105588	-0.415447	0.202732	-0.115704	0.248298	0.067305	-0.251298	2.16352	-0.77062	1.05414	1.84534	1.69459	3.50893	-1.25755	2.65967	2.3183	1.28705
2.28	-0.282139	-0.0674399	0.0932278	-0.154263	1.19195	-0.580208	0.278799	0.0101625	-0.370645	0.0127755	-0.485274	0.115098	-0.115704	0.329688	-0.109099	-0.310419	0.0793174	-0.464935	0.232847	-0.115704	0.277839	0.0690167	-0.285356	2.1128	-0.766872	1.03512	1.86852	1.70368	3.84541	-1.21548	3.04525	2.37045	1.26699
2.29	-0.29277	-0.0663234	0.08645	-0.15103	1.21432	-0.581014	0.282255	0.0109225	-0.372536	0.00982474	-0.510542	0.134895	-0.115704	0.330693	-0.104081	-0.320087	0.0753096	-0.497359	0.249022	-0.115704	0.299119	0.0699468	-0.312344	2.04906	-0.774314	1.00342	1.90242	1.70985	4.13703	-1.16087	3.38598	2.42358	1.25454
2.3	-0.29867	-0.0654841	0.0783116	-0.149322	1.23608	-0.581209	0.289342	0.0125036	-0.361334	0.0252764	-0.523304	0.135309	-0.115704	0.334779	-0.100403	-0.316386	0.089053	-0.515217	0.252746	-0.115704	0.30935	0.0702107	-0.329957	1.96999	-0.793982	0.956659	1.94607	1.71078	4.37469	-1.09956	3.6739	2.47454	1.25018
